<?xml version="1.0" standalone="no"?>
<!DOCTYPE svg PUBLIC "-//W3C//DTD SVG 20010904//EN"
 "http://www.w3.org/TR/2001/REC-SVG-20010904/DTD/svg10.dtd">
<svg version="1.0" xmlns="http://www.w3.org/2000/svg"
 width="260.000000pt" height="260.000000pt" viewBox="0 0 260.000000 260.000000"
 preserveAspectRatio="xMidYMid meet">
<metadata>
Created by potrace 1.14, written by Peter Selinger 2001-2017
</metadata>
<g transform="translate(0.000000,260.000000) scale(0.100000,-0.100000)"
fill="#000000" stroke="none">
<path d="M0 1300 l0 -1300 1300 0 1300 0 0 1300 0 1300 -1300 0 -1300 0 0
-1300z m1111 470 l47 -145 1 80 c1 72 -12 147 -34 198 -7 16 3 17 120 17 117
0 127 -1 120 -17 -52 -124 -49 -98 -53 -434 -4 -353 -2 -369 74 -507 19 -34
34 -65 34 -67 0 -3 -70 -5 -155 -5 -85 0 -155 2 -155 4 0 2 9 24 20 49 33 74
35 150 7 237 l-24 75 -155 3 -155 2 -28 -87 c-46 -146 -44 -170 21 -260 l16
-23 -106 0 c-58 0 -106 2 -106 4 0 3 18 33 39 68 42 67 62 121 221 623 57 176
105 324 107 328 3 4 26 7 51 5 l46 -3 47 -145z m779 146 c0 -2 -33 -28 -72
-59 -92 -69 -142 -116 -263 -245 l-96 -102 98 -128 c53 -70 146 -192 206 -272
60 -80 122 -159 139 -176 36 -38 29 -45 -56 -51 -48 -3 -67 0 -92 15 -23 15
-262 312 -416 518 -6 8 37 60 125 153 149 155 182 209 174 276 -3 22 -8 48
-12 58 -7 16 3 17 129 17 75 0 136 -2 136 -4z"/>
<path d="M900 1568 c-28 -90 -58 -185 -67 -211 -8 -27 -13 -50 -10 -53 2 -2
65 -3 139 -2 l134 3 -66 207 c-37 114 -69 210 -72 214 -4 3 -29 -68 -58 -158z"/>
</g>
</svg>
